PathFileType	4	(X/Y/Z)	D:\TRACE\v60_Jaco2_6-2-23\JustBodyDRS_Motion2_3-v60.trc
DataRate	CameraRate	NumFrames	NumMarkers	Units	OrigDataRate	OrigDataStartFrame	OrigNumFrames
100.00	100.00	      13	9	mm	100.00	3418	      6834
Frame#	Time	front left toe			Front right toe			aft left toe			aft right toe			Arm			FL body			FR body			AL Body			AR Body			
		X1	Y1	Z1	X2	Y2	Z2	X3	Y3	Z3	X4	Y4	Z4	X5	Y5	Z5	X6	Y6	Z6	X7	Y7	Z7	X8	Y8	Z8	X9	Y9	Z9	

3418	34.170	-183.02664	26.79749	-188.15680	96.50527	25.18939	-238.91914	-311.52878	1.96633	388.19760	193.09747	28.67147	447.45078	-134.70633	1203.39685	-338.13345	-104.60371	572.21606	-340.36700	54.64444	572.78888	-338.29559	-121.03450	557.11707	605.40857	34.65294	551.41101	609.13989	
3419	34.180	-183.05750	28.38513	-186.71466	95.79582	25.21398	-238.70360	-310.58005	1.35988	388.41718	197.67990	21.52900	449.43207	-133.46097	1203.36621	-334.52084	-102.11268	573.55792	-338.12393	57.79129	574.02716	-335.30048	-117.52800	555.38336	608.13959	38.08627	549.56342	612.04626	
3420	34.190	-181.85460	29.29735	-186.89038	96.21896	25.76572	-238.33658	-309.67810	0.97490	389.05927	200.09094	13.16747	450.63388	-131.78398	1204.23901	-328.82294	-99.83392	575.14539	-335.17853	61.03791	575.47906	-332.44351	-113.78703	553.62323	611.20709	42.42330	548.23242	613.95068	
3421	34.200	-181.00081	30.07969	-185.64465	97.48996	26.62213	-237.88173	-309.18225	0.73157	389.46277	203.70670	-1.12566	450.85324	-129.13217	1205.64929	-324.08984	-95.61939	575.19550	-331.78043	63.90545	576.80341	-329.81824	-110.17160	551.74237	614.21429	46.34961	546.87866	616.75104	
3422	34.210	-181.06354	30.40960	-185.27567	97.51274	26.87851	-237.73293	-308.25827	0.15907	389.73822	206.44383	-3.79101	447.61874	-125.85071	1207.43713	-318.42526	-92.99509	575.55725	-329.16626	67.04150	577.83228	-326.26422	-106.76421	551.15826	617.03973	49.42413	547.28583	619.94818	
3423	34.220	-180.20279	30.44530	-184.39369	98.45634	27.75451	-236.40738	-307.21930	0.27882	390.41119	207.61737	-3.71946	451.73044	-123.33365	1209.61121	-313.25119	-88.67105	575.00482	-325.54834	70.64172	578.35406	-323.36859	-103.74620	551.95947	619.87207	52.46998	549.20844	622.92017	
3424	34.230	-177.83127	30.98917	-181.42091	102.22942	31.67813	-236.48364	-302.67673	3.35651	390.36505	206.84706	-4.69312	453.82657	-121.87335	1210.48035	-309.33411	-85.69577	576.80176	-323.27063	74.89194	579.33234	-320.37753	-101.34585	552.94110	623.34344	55.66037	549.31543	625.56836	
3425	34.240	-175.88345	32.36410	-180.52673	103.48119	36.23151	-232.88376	-295.71890	7.20154	392.55759	207.63287	-6.67089	452.50827	-121.69558	1210.58875	-306.97360	-82.21703	579.17822	-320.58020	78.13252	581.00970	-317.35464	-97.77620	551.19220	625.71240	58.55050	547.33411	628.30530	
3426	34.250	-173.99295	32.72133	-177.99594	104.80037	42.33552	-228.70097	-290.06830	9.24541	396.67157	209.05847	-7.34841	453.94501	-116.60986	1210.81909	-302.90744	-78.40166	580.74805	-317.88962	80.83415	583.65338	-315.03592	-95.53436	548.89960	627.93915	61.26171	545.66254	630.56470	
3427	34.260	-172.91876	32.81867	-177.45627	107.44173	55.12653	-226.70012	-283.95807	17.51096	397.03571	209.02718	-8.74102	453.93082	-113.95467	1211.30945	-299.83057	-76.77818	582.52386	-316.35144	83.60033	585.39197	-313.13965	-92.78384	547.08875	629.91626	63.57817	544.13025	632.27429	
3428	34.270	-173.38484	32.94957	-178.31677	111.84930	65.56134	-224.02922	-277.93701	26.63365	397.09659	208.59595	-9.99895	453.30713	-111.71994	1212.78625	-297.29501	-74.37210	582.84650	-314.59515	85.62836	586.21222	-311.66211	-89.94527	546.13531	631.59692	65.87950	543.29938	633.92291	
3429	34.280	-173.28946	33.10361	-177.24902	117.48082	78.81304	-222.51671	-272.13751	37.76867	397.94598	208.16330	-10.72568	452.70755	-109.38447	1214.85010	-294.06131	-72.57098	583.58221	-313.01886	87.57126	586.91589	-310.20660	-87.54956	544.75336	633.11707	68.56578	542.16516	635.38763	
3430	34.290	-173.09003	33.65194	-177.26057	123.84576	91.36621	-220.40260	-267.55341	50.62210	399.95044	207.73055	-10.94640	452.12915	-107.79088	1216.74573	-289.03699	-71.06937	584.66016	-311.44989	89.30961	587.44147	-308.79654	-85.07494	543.34576	634.61475	71.14686	540.62549	636.82361	
